:FULLY-SPECIFIED
:FORCE-ALL-JOINTS-BE-3DOF
:DEGREES
102
root -2.83539 16.509 -36.1835 3.2237 0.143825 -2.20436
lfemur -21.2435 5.84317 -9.19637
ltibia 44.4949 -0 0
lfoot -21.6803 0.00148561 -0.000315052
ltoes -8.22462 0 0
rfemur -21.7221 -5.82472 13.7226
rtibia 47.1522 -0 0
rfoot -25.5522 1.40615 4.03286e-05
rtoes -6.94905 0 0
lowerback 7.49866 1.99097 -1.74427
upperback -3.64755 2.57152 1.19601
thorax -8.19662 1.38762 1.86841
lowerneck -2.71269 -3.84787 -6.56123
upperneck 6.15137 -5.19972 5.92024
head 2.84919 -2.57323 2.93626
lclavicle 1.56973e-14 2.23137e-14 -1.08172e-30
lhumerus -26.8442 -4.22682 89.7597
lradius 25.0103 -0 0
lwrist -30.1013 0 0
lhand -28.6553 30.3389 -0.000147312
lfingers 7.12502 -0 0
lthumb -2.06276 60.1219 9.47023e-05
rclavicle 3.36329e-14 1.28069e-14 4.37322e-32
rhumerus -32.5169 2.7878 -80.266
rradius 30.6941 -0 0
rwrist 2.67377 0 0
rhand -19.9879 -27.8745 0
rfingers 7.12502 -0 0
rthumb 5.95654 -57.2051 -0.000328826
103
root -2.83395 16.5074 -36.1796 3.2345 0.0984108 -2.27888
lfemur -21.269 5.84426 -9.19598
ltibia 44.5159 -0 0
lfoot -21.7152 0.0148509 -0.000285065
ltoes -8.27095 0 0
rfemur -21.7478 -5.83969 13.741
rtibia 47.1716 -0 0
rfoot -25.5713 1.40249 3.58072e-05
rtoes -6.95025 0 0
lowerback 7.46285 2.00172 -1.7131
upperback -3.65393 2.59173 1.22056
thorax -8.18338 1.39663 1.87488
lowerneck -2.78693 -3.84815 -6.54758
upperneck 6.2223 -5.198 5.90326
head 2.88589 -2.57151 2.92713
lclavicle 1.66495e-14 2.38642e-14 -9.01905e-31
lhumerus -26.8636 -4.21293 89.7659
lradius 25.0202 -0 0
lwrist -30.0891 0 0
lhand -28.6434 30.3216 -0.000143697
lfingers 7.12502 -0 0
lthumb -2.04321 60.1336 9.86901e-05
rclavicle 3.3837e-14 1.23309e-14 3.61955e-32
rhumerus -32.5234 2.77204 -80.2554
rradius 30.7058 -0 0
rwrist 2.67824 0 0
rhand -19.9876 -27.8724 1.72366e-06
rfingers 7.12502 -0 0
rthumb 5.94179 -57.1718 -0.000306899
104
root -2.83199 16.5088 -36.1758 3.28806 0.12855 -2.29513
lfemur -21.2778 5.84464 -9.19584
ltibia 44.5291 -0 0
lfoot -21.7484 0.0275337 -0.00024907
ltoes -8.31217 0 0
rfemur -21.777 -5.85679 13.7621
rtibia 47.1894 -0 0
rfoot -25.5892 1.39906 3.04515e-05
rtoes -6.95371 0 0
lowerback 7.37791 1.98235 -1.72172
upperback -3.69357 2.56616 1.22081
thorax -8.17576 1.3851 1.88581
lowerneck -2.69112 -3.83772 -6.52947
upperneck 6.19823 -5.18968 5.90533
head 2.85845 -2.5683 2.92596
lclavicle 1.7517e-14 2.52769e-14 -7.15651e-31
lhumerus -26.8811 -4.20041 89.7715
lradius 25.0302 -0 0
lwrist -30.0771 0 0
lhand -28.6317 30.3045 -0.000136625
lfingers 7.12502 -0 0
lthumb -2.02349 60.1453 9.86901e-05
rclavicle 3.40215e-14 1.19004e-14 2.79192e-32
rhumerus -32.529 2.75861 -80.2464
rradius 30.7162 -0 0
rwrist 2.68104 0 0
rhand -19.9867 -27.8665 6.67384e-06
rfingers 7.12502 -0 0
rthumb 5.92757 -57.1398 -0.000277687
105
root -2.82947 16.5078 -36.1734 3.33607 0.149049 -2.30513
lfemur -21.2828 5.84458 -9.19395
ltibia 44.5337 0 0
lfoot -21.7793 0.0393634 -0.000208881
ltoes -8.34753 0 0
rfemur -21.8093 -5.87561 13.7853
rtibia 47.2052 -0 0
rfoot -25.6057 1.39591 2.45813e-05
rtoes -6.95922 0 0
lowerback 7.32754 1.97635 -1.73243
upperback -3.7182 2.55747 1.21668
thorax -8.17283 1.38162 1.88991
lowerneck -2.70842 -3.84124 -6.48948
upperneck 6.22184 -5.19492 5.88401
head 2.86762 -2.57029 2.91068
lclavicle 1.82868e-14 2.65304e-14 -5.32466e-31
lhumerus -26.8962 -4.18955 89.7764
lradius 25.0401 -0 0
lwrist -30.0656 0 0
lhand -28.6203 30.2879 -0.00012641
lfingers 7.12502 -0 0
lthumb -2.00394 60.157 9.47023e-05
rclavicle 3.41822e-14 1.15255e-14 1.95823e-32
rhumerus -32.5335 2.74777 -80.239
rradius 30.725 -0 0
rwrist 2.68202 0 0
rhand -19.9852 -27.8569 1.44402e-05
rfingers 7.12502 -0 0
rthumb 5.91409 -57.1094 -0.000242624
106
root -2.8277 16.5086 -36.1716 3.37051 0.181047 -2.35253
lfemur -21.2973 5.84441 -9.18852
ltibia 44.5405 -0 0
lfoot -21.8076 0.0501693 -0.000166589
ltoes -8.37631 0 0
rfemur -21.8437 -5.89569 13.8101
rtibia 47.2186 -0 0
rfoot -25.6205 1.39308 1.85618e-05
rtoes -6.96658 0 0
lowerback 7.2879 1.96665 -1.72144
upperback -3.74694 2.54747 1.23139
thorax -8.18044 1.37702 1.90154
lowerneck -2.62272 -3.81502 -6.49001
upperneck 6.17888 -5.16558 5.92283
head 2.83645 -2.55589 2.92642
lclavicle 1.89458e-14 2.76036e-14 -3.62254e-31
lhumerus -26.9087 -4.18063 89.7804
lradius 25.0499 -0 0
lwrist -30.0546 0 0
lhand -28.6094 30.272 -0.000113511
lfingers 7.12502 -0 0
lthumb -1.98493 60.1683 8.70166e-05
rclavicle 3.43147e-14 1.12163e-14 1.19155e-32
rhumerus -32.5368 2.73973 -80.2336
rradius 30.7322 -0 0
rwrist 2.68278 0 0
rhand -19.9832 -27.8439 2.45294e-05
rfingers 7.12502 -0 0
rthumb 5.90151 -57.0811 -0.000203475
